<svg width="24" height="25" viewBox="0 0 24 25" fill="none" xmlns="http://www.w3.org/2000/svg">
<g clip-path="url(#clip0_81_4859)">
<path d="M18.15 3.5C18.15 3.08579 17.8142 2.75 17.4 2.75C16.9858 2.75 16.65 3.08579 16.65 3.5H18.15ZM16.65 7.1C16.65 7.51421 16.9858 7.85 17.4 7.85C17.8142 7.85 18.15 7.51421 18.15 7.1H16.65ZM7.35 3.5C7.35 3.08579 7.01421 2.75 6.6 2.75C6.18579 2.75 5.85 3.08579 5.85 3.5H7.35ZM5.85 7.1C5.85 7.51421 6.18579 7.85 6.6 7.85C7.01421 7.85 7.35 7.51421 7.35 7.1H5.85ZM3.58579 20.9142L3.05546 21.4445L3.58579 20.9142ZM20.4142 20.9142L19.8839 20.3839L20.4142 20.9142ZM20.4142 5.88579L20.9445 5.35546L20.4142 5.88579ZM3.58579 5.88579L3.05546 5.35546L3.58579 5.88579ZM20.25 9.3V17.5H21.75V9.3H20.25ZM17 20.75H7V22.25H17V20.75ZM3.75 17.5V9.3H2.25V17.5H3.75ZM7.0013 6.05C7.00822 6.05 7.01513 6.05 7.02205 6.05C7.02896 6.05 7.03587 6.05 7.04278 6.05C7.04969 6.05 7.0566 6.05 7.0635 6.05C7.0704 6.05 7.07731 6.05 7.08421 6.05C7.0911 6.05 7.098 6.05 7.1049 6.05C7.11179 6.05 7.11868 6.05 7.12557 6.05C7.13246 6.05 7.13935 6.05 7.14624 6.05C7.15312 6.05 7.16 6.05 7.16688 6.05C7.17376 6.05 7.18064 6.05 7.18752 6.05C7.19439 6.05 7.20127 6.05 7.20814 6.05C7.21501 6.05 7.22188 6.05 7.22875 6.05C7.23561 6.05 7.24248 6.05 7.24934 6.05C7.2562 6.05 7.26306 6.05 7.26992 6.05C7.27678 6.05 7.28363 6.05 7.29048 6.05C7.29734 6.05 7.30419 6.05 7.31104 6.05C7.31788 6.05 7.32473 6.05 7.33157 6.05C7.33842 6.05 7.34526 6.05 7.3521 6.05C7.35894 6.05 7.36578 6.05 7.37261 6.05C7.37945 6.05 7.38628 6.05 7.39311 6.05C7.39994 6.05 7.40677 6.05 7.41359 6.05C7.42042 6.05 7.42724 6.05 7.43407 6.05C7.44089 6.05 7.44771 6.05 7.45452 6.05C7.46134 6.05 7.46816 6.05 7.47497 6.05C7.48178 6.05 7.48859 6.05 7.4954 6.05C7.50221 6.05 7.50902 6.05 7.51582 6.05C7.52263 6.05 7.52943 6.05 7.53623 6.05C7.54303 6.05 7.54983 6.05 7.55662 6.05C7.56342 6.05 7.57021 6.05 7.577 6.05C7.58379 6.05 7.59058 6.05 7.59737 6.05C7.60416 6.05 7.61094 6.05 7.61772 6.05C7.62451 6.05 7.63129 6.05 7.63806 6.05C7.64484 6.05 7.65162 6.05 7.65839 6.05C7.66517 6.05 7.67194 6.05 7.67871 6.05C7.68548 6.05 7.69225 6.05 7.69902 6.05C7.70578 6.05 7.71254 6.05 7.71931 6.05C7.72607 6.05 7.73283 6.05 7.73959 6.05C7.74634 6.05 7.7531 6.05 7.75985 6.05C7.76661 6.05 7.77336 6.05 7.78011 6.05C7.78686 6.05 7.7936 6.05 7.80035 6.05C7.8071 6.05 7.81384 6.05 7.82058 6.05C7.82732 6.05 7.83406 6.05 7.8408 6.05C7.84754 6.05 7.85427 6.05 7.861 6.05C7.86774 6.05 7.87447 6.05 7.8812 6.05C7.88793 6.05 7.89465 6.05 7.90138 6.05C7.9081 6.05 7.91483 6.05 7.92155 6.05C7.92827 6.05 7.93499 6.05 7.94171 6.05C7.94842 6.05 7.95514 6.05 7.96185 6.05C7.96857 6.05 7.97528 6.05 7.98199 6.05C7.9887 6.05 7.9954 6.05 8.00211 6.05C8.00882 6.05 8.01552 6.05 8.02222 6.05C8.02892 6.05 8.03562 6.05 8.04232 6.05C8.04902 6.05 8.05572 6.05 8.06241 6.05C8.0691 6.05 8.0758 6.05 8.08249 6.05C8.08918 6.05 8.09586 6.05 8.10255 6.05C8.10924 6.05 8.11592 6.05 8.1226 6.05C8.12929 6.05 8.13597 6.05 8.14265 6.05C8.14933 6.05 8.156 6.05 8.16268 6.05C8.16935 6.05 8.17603 6.05 8.1827 6.05C8.18937 6.05 8.19604 6.05 8.20271 6.05C8.20937 6.05 8.21604 6.05 8.2227 6.05C8.22937 6.05 8.23603 6.05 8.24269 6.05C8.24935 6.05 8.25601 6.05 8.26267 6.05C8.26932 6.05 8.27598 6.05 8.28263 6.05C8.28929 6.05 8.29594 6.05 8.30259 6.05C8.30924 6.05 8.31588 6.05 8.32253 6.05C8.32917 6.05 8.33582 6.05 8.34246 6.05C8.3491 6.05 8.35574 6.05 8.36238 6.05C8.36902 6.05 8.37566 6.05 8.38229 6.05C8.38893 6.05 8.39556 6.05 8.40219 6.05C8.40883 6.05 8.41546 6.05 8.42209 6.05C8.42871 6.05 8.43534 6.05 8.44196 6.05C8.44859 6.05 8.45521 6.05 8.46183 6.05C8.46846 6.05 8.47507 6.05 8.48169 6.05C8.48831 6.05 8.49493 6.05 8.50154 6.05C8.50816 6.05 8.51477 6.05 8.52138 6.05C8.52799 6.05 8.5346 6.05 8.54121 6.05C8.54782 6.05 8.55442 6.05 8.56103 6.05C8.56763 6.05 8.57423 6.05 8.58083 6.05C8.58743 6.05 8.59403 6.05 8.60063 6.05C8.60723 6.05 8.61382 6.05 8.62042 6.05C8.62701 6.05 8.63361 6.05 8.6402 6.05C8.64679 6.05 8.65338 6.05 8.65997 6.05C8.66655 6.05 8.67314 6.05 8.67972 6.05C8.68631 6.05 8.69289 6.05 8.69947 6.05C8.70605 6.05 8.71263 6.05 8.71921 6.05C8.72579 6.05 8.73237 6.05 8.73894 6.05C8.74552 6.05 8.75209 6.05 8.75866 6.05C8.76523 6.05 8.7718 6.05 8.77837 6.05C8.78494 6.05 8.79151 6.05 8.79807 6.05C8.80464 6.05 8.8112 6.05 8.81776 6.05C8.82433 6.05 8.83089 6.05 8.83745 6.05C8.844 6.05 8.85056 6.05 8.85712 6.05C8.86367 6.05 8.87023 6.05 8.87678 6.05C8.88334 6.05 8.88989 6.05 8.89644 6.05C8.90299 6.05 8.90953 6.05 8.91608 6.05C8.92263 6.05 8.92917 6.05 8.93572 6.05C8.94226 6.05 8.9488 6.05 8.95535 6.05C8.96189 6.05 8.96843 6.05 8.97496 6.05C8.9815 6.05 8.98804 6.05 8.99457 6.05C9.00111 6.05 9.00764 6.05 9.01417 6.05C9.02071 6.05 9.02724 6.05 9.03377 6.05C9.04029 6.05 9.04682 6.05 9.05335 6.05C9.05988 6.05 9.0664 6.05 9.07292 6.05C9.07945 6.05 9.08597 6.05 9.09249 6.05C9.09901 6.05 9.10553 6.05 9.11205 6.05C9.11856 6.05 9.12508 6.05 9.1316 6.05C9.13811 6.05 9.14462 6.05 9.15114 6.05C9.15765 6.05 9.16416 6.05 9.17067 6.05C9.17718 6.05 9.18368 6.05 9.19019 6.05C9.1967 6.05 9.2032 6.05 9.20971 6.05C9.21621 6.05 9.22271 6.05 9.22921 6.05C9.23571 6.05 9.24221 6.05 9.24871 6.05C9.25521 6.05 9.26171 6.05 9.2682 6.05C9.2747 6.05 9.28119 6.05 9.28769 6.05C9.29418 6.05 9.30067 6.05 9.30716 6.05C9.31365 6.05 9.32014 6.05 9.32663 6.05C9.33312 6.05 9.3396 6.05 9.34609 6.05C9.35257 6.05 9.35906 6.05 9.36554 6.05C9.37202 6.05 9.3785 6.05 9.38498 6.05C9.39146 6.05 9.39794 6.05 9.40442 6.05C9.4109 6.05 9.41737 6.05 9.42385 6.05C9.43032 6.05 9.43679 6.05 9.44327 6.05C9.44974 6.05 9.45621 6.05 9.46268 6.05C9.46915 6.05 9.47562 6.05 9.48209 6.05C9.48855 6.05 9.49502 6.05 9.50148 6.05C9.50795 6.05 9.51441 6.05 9.52087 6.05C9.52734 6.05 9.5338 6.05 9.54026 6.05C9.54672 6.05 9.55318 6.05 9.55963 6.05C9.56609 6.05 9.57255 6.05 9.579 6.05C9.58546 6.05 9.59191 6.05 9.59836 6.05C9.60482 6.05 9.61127 6.05 9.61772 6.05C9.62417 6.05 9.63062 6.05 9.63707 6.05C9.64352 6.05 9.64996 6.05 9.65641 6.05C9.66285 6.05 9.6693 6.05 9.67574 6.05C9.68219 6.05 9.68863 6.05 9.69507 6.05C9.70151 6.05 9.70795 6.05 9.71439 6.05C9.72083 6.05 9.72727 6.05 9.7337 6.05C9.74014 6.05 9.74657 6.05 9.75301 6.05C9.75944 6.05 9.76588 6.05 9.77231 6.05C9.77874 6.05 9.78517 6.05 9.7916 6.05C9.79803 6.05 9.80446 6.05 9.81089 6.05C9.81732 6.05 9.82374 6.05 9.83017 6.05C9.8366 6.05 9.84302 6.05 9.84944 6.05C9.85587 6.05 9.86229 6.05 9.86871 6.05C9.87513 6.05 9.88155 6.05 9.88797 6.05C9.89439 6.05 9.90081 6.05 9.90723 6.05C9.91365 6.05 9.92006 6.05 9.92648 6.05C9.93289 6.05 9.93931 6.05 9.94572 6.05C9.95213 6.05 9.95855 6.05 9.96496 6.05C9.97137 6.05 9.97778 6.05 9.98419 6.05C9.9906 6.05 9.99701 6.05 10.0034 6.05C10.0098 6.05 10.0162 6.05 10.0226 6.05C10.029 6.05 10.0354 6.05 10.0418 6.05C10.0482 6.05 10.0547 6.05 10.0611 6.05C10.0675 6.05 10.0739 6.05 10.0803 6.05C10.0867 6.05 10.0931 6.05 10.0994 6.05C10.1058 6.05 10.1122 6.05 10.1186 6.05C10.125 6.05 10.1314 6.05 10.1378 6.05C10.1442 6.05 10.1506 6.05 10.157 6.05C10.1634 6.05 10.1698 6.05 10.1762 6.05C10.1826 6.05 10.189 6.05 10.1953 6.05C10.2017 6.05 10.2081 6.05 10.2145 6.05C10.2209 6.05 10.2273 6.05 10.2337 6.05C10.2401 6.05 10.2464 6.05 10.2528 6.05C10.2592 6.05 10.2656 6.05 10.272 6.05C10.2783 6.05 10.2847 6.05 10.2911 6.05C10.2975 6.05 10.3039 6.05 10.3102 6.05C10.3166 6.05 10.323 6.05 10.3294 6.05C10.3358 6.05 10.3421 6.05 10.3485 6.05C10.3549 6.05 10.3613 6.05 10.3676 6.05C10.374 6.05 10.3804 6.05 10.3867 6.05C10.3931 6.05 10.3995 6.05 10.4059 6.05C10.4122 6.05 10.4186 6.05 10.425 6.05C10.4313 6.05 10.4377 6.05 10.4441 6.05C10.4504 6.05 10.4568 6.05 10.4632 6.05C10.4695 6.05 10.4759 6.05 10.4823 6.05C10.4886 6.05 10.495 6.05 10.5013 6.05C10.5077 6.05 10.5141 6.05 10.5204 6.05C10.5268 6.05 10.5332 6.05 10.5395 6.05C10.5459 6.05 10.5522 6.05 10.5586 6.05C10.5649 6.05 10.5713 6.05 10.5777 6.05C10.584 6.05 10.5904 6.05 10.5967 6.05C10.6031 6.05 10.6094 6.05 10.6158 6.05C10.6221 6.05 10.6285 6.05 10.6349 6.05C10.6412 6.05 10.6476 6.05 10.6539 6.05C10.6603 6.05 10.6666 6.05 10.673 6.05C10.6793 6.05 10.6857 6.05 10.692 6.05C10.6984 6.05 10.7047 6.05 10.7111 6.05C10.7174 6.05 10.7237 6.05 10.7301 6.05C10.7364 6.05 10.7428 6.05 10.7491 6.05C10.7555 6.05 10.7618 6.05 10.7682 6.05C10.7745 6.05 10.7808 6.05 10.7872 6.05C10.7935 6.05 10.7999 6.05 10.8062 6.05C10.8126 6.05 10.8189 6.05 10.8252 6.05C10.8316 6.05 10.8379 6.05 10.8443 6.05C10.8506 6.05 10.8569 6.05 10.8633 6.05C10.8696 6.05 10.8759 6.05 10.8823 6.05C10.8886 6.05 10.895 6.05 10.9013 6.05C10.9076 6.05 10.914 6.05 10.9203 6.05C10.9266 6.05 10.933 6.05 10.9393 6.05C10.9456 6.05 10.952 6.05 10.9583 6.05C10.9646 6.05 10.971 6.05 10.9773 6.05C10.9836 6.05 10.99 6.05 10.9963 6.05C11.0026 6.05 11.0089 6.05 11.0153 6.05C11.0216 6.05 11.0279 6.05 11.0343 6.05C11.0406 6.05 11.0469 6.05 11.0532 6.05C11.0596 6.05 11.0659 6.05 11.0722 6.05C11.0785 6.05 11.0849 6.05 11.0912 6.05C11.0975 6.05 11.1038 6.05 11.1102 6.05C11.1165 6.05 11.1228 6.05 11.1291 6.05C11.1355 6.05 11.1418 6.05 11.1481 6.05C11.1544 6.05 11.1608 6.05 11.1671 6.05C11.1734 6.05 11.1797 6.05 11.186 6.05C11.1924 6.05 11.1987 6.05 11.205 6.05C11.2113 6.05 11.2177 6.05 11.224 6.05C11.2303 6.05 11.2366 6.05 11.2429 6.05C11.2492 6.05 11.2556 6.05 11.2619 6.05C11.2682 6.05 11.2745 6.05 11.2808 6.05C11.2872 6.05 11.2935 6.05 11.2998 6.05C11.3061 6.05 11.3124 6.05 11.3187 6.05C11.3251 6.05 11.3314 6.05 11.3377 6.05C11.344 6.05 11.3503 6.05 11.3566 6.05C11.3629 6.05 11.3693 6.05 11.3756 6.05C11.3819 6.05 11.3882 6.05 11.3945 6.05C11.4008 6.05 11.4071 6.05 11.4135 6.05C11.4198 6.05 11.4261 6.05 11.4324 6.05C11.4387 6.05 11.445 6.05 11.4513 6.05C11.4576 6.05 11.464 6.05 11.4703 6.05C11.4766 6.05 11.4829 6.05 11.4892 6.05C11.4955 6.05 11.5018 6.05 11.5081 6.05C11.5144 6.05 11.5207 6.05 11.5271 6.05C11.5334 6.05 11.5397 6.05 11.546 6.05C11.5523 6.05 11.5586 6.05 11.5649 6.05C11.5712 6.05 11.5775 6.05 11.5838 6.05C11.5901 6.05 11.5965 6.05 11.6028 6.05C11.6091 6.05 11.6154 6.05 11.6217 6.05C11.628 6.05 11.6343 6.05 11.6406 6.05C11.6469 6.05 11.6532 6.05 11.6595 6.05C11.6658 6.05 11.6721 6.05 11.6785 6.05C11.6848 6.05 11.6911 6.05 11.6974 6.05C11.7037 6.05 11.71 6.05 11.7163 6.05C11.7226 6.05 11.7289 6.05 11.7352 6.05C11.7415 6.05 11.7478 6.05 11.7541 6.05C11.7604 6.05 11.7667 6.05 11.773 6.05C11.7793 6.05 11.7857 6.05 11.792 6.05C11.7983 6.05 11.8046 6.05 11.8109 6.05C11.8172 6.05 11.8235 6.05 11.8298 6.05C11.8361 6.05 11.8424 6.05 11.8487 6.05C11.855 6.05 11.8613 6.05 11.8676 6.05C11.8739 6.05 11.8802 6.05 11.8865 6.05C11.8928 6.05 11.8991 6.05 11.9054 6.05C11.9117 6.05 11.918 6.05 11.9244 6.05C11.9307 6.05 11.937 6.05 11.9433 6.05C11.9496 6.05 11.9559 6.05 11.9622 6.05C11.9685 6.05 11.9748 6.05 11.9811 6.05C11.9874 6.05 11.9937 6.05 12 6.05C12.0063 6.05 12.0126 6.05 12.0189 6.05C12.0252 6.05 12.0315 6.05 12.0378 6.05C12.0441 6.05 12.0504 6.05 12.0567 6.05C12.063 6.05 12.0693 6.05 12.0756 6.05C12.082 6.05 12.0883 6.05 12.0946 6.05C12.1009 6.05 12.1072 6.05 12.1135 6.05C12.1198 6.05 12.1261 6.05 12.1324 6.05C12.1387 6.05 12.145 6.05 12.1513 6.05C12.1576 6.05 12.1639 6.05 12.1702 6.05C12.1765 6.05 12.1828 6.05 12.1891 6.05C12.1954 6.05 12.2017 6.05 12.208 6.05C12.2143 6.05 12.2207 6.05 12.227 6.05C12.2333 6.05 12.2396 6.05 12.2459 6.05C12.2522 6.05 12.2585 6.05 12.2648 6.05C12.2711 6.05 12.2774 6.05 12.2837 6.05C12.29 6.05 12.2963 6.05 12.3026 6.05C12.3089 6.05 12.3152 6.05 12.3215 6.05C12.3279 6.05 12.3342 6.05 12.3405 6.05C12.3468 6.05 12.3531 6.05 12.3594 6.05C12.3657 6.05 12.372 6.05 12.3783 6.05C12.3846 6.05 12.3909 6.05 12.3972 6.05C12.4035 6.05 12.4098 6.05 12.4162 6.05C12.4225 6.05 12.4288 6.05 12.4351 6.05C12.4414 6.05 12.4477 6.05 12.454 6.05C12.4603 6.05 12.4666 6.05 12.4729 6.05C12.4792 6.05 12.4856 6.05 12.4919 6.05C12.4982 6.05 12.5045 6.05 12.5108 6.05C12.5171 6.05 12.5234 6.05 12.5297 6.05C12.536 6.05 12.5424 6.05 12.5487 6.05C12.555 6.05 12.5613 6.05 12.5676 6.05C12.5739 6.05 12.5802 6.05 12.5865 6.05C12.5929 6.05 12.5992 6.05 12.6055 6.05C12.6118 6.05 12.6181 6.05 12.6244 6.05C12.6307 6.05 12.6371 6.05 12.6434 6.05C12.6497 6.05 12.656 6.05 12.6623 6.05C12.6686 6.05 12.6749 6.05 12.6813 6.05C12.6876 6.05 12.6939 6.05 12.7002 6.05C12.7065 6.05 12.7128 6.05 12.7192 6.05C12.7255 6.05 12.7318 6.05 12.7381 6.05C12.7444 6.05 12.7508 6.05 12.7571 6.05C12.7634 6.05 12.7697 6.05 12.776 6.05C12.7823 6.05 12.7887 6.05 12.795 6.05C12.8013 6.05 12.8076 6.05 12.814 6.05C12.8203 6.05 12.8266 6.05 12.8329 6.05C12.8392 6.05 12.8456 6.05 12.8519 6.05C12.8582 6.05 12.8645 6.05 12.8709 6.05C12.8772 6.05 12.8835 6.05 12.8898 6.05C12.8961 6.05 12.9025 6.05 12.9088 6.05C12.9151 6.05 12.9215 6.05 12.9278 6.05C12.9341 6.05 12.9404 6.05 12.9468 6.05C12.9531 6.05 12.9594 6.05 12.9657 6.05C12.9721 6.05 12.9784 6.05 12.9847 6.05C12.9911 6.05 12.9974 6.05 13.0037 6.05C13.01 6.05 13.0164 6.05 13.0227 6.05C13.029 6.05 13.0354 6.05 13.0417 6.05C13.048 6.05 13.0544 6.05 13.0607 6.05C13.067 6.05 13.0734 6.05 13.0797 6.05C13.086 6.05 13.0924 6.05 13.0987 6.05C13.105 6.05 13.1114 6.05 13.1177 6.05C13.1241 6.05 13.1304 6.05 13.1367 6.05C13.1431 6.05 13.1494 6.05 13.1557 6.05C13.1621 6.05 13.1684 6.05 13.1748 6.05C13.1811 6.05 13.1874 6.05 13.1938 6.05C13.2001 6.05 13.2065 6.05 13.2128 6.05C13.2192 6.05 13.2255 6.05 13.2318 6.05C13.2382 6.05 13.2445 6.05 13.2509 6.05C13.2572 6.05 13.2636 6.05 13.2699 6.05C13.2763 6.05 13.2826 6.05 13.2889 6.05C13.2953 6.05 13.3016 6.05 13.308 6.05C13.3143 6.05 13.3207 6.05 13.327 6.05C13.3334 6.05 13.3397 6.05 13.3461 6.05C13.3524 6.05 13.3588 6.05 13.3651 6.05C13.3715 6.05 13.3779 6.05 13.3842 6.05C13.3906 6.05 13.3969 6.05 13.4033 6.05C13.4096 6.05 13.416 6.05 13.4223 6.05C13.4287 6.05 13.4351 6.05 13.4414 6.05C13.4478 6.05 13.4541 6.05 13.4605 6.05C13.4668 6.05 13.4732 6.05 13.4796 6.05C13.4859 6.05 13.4923 6.05 13.4987 6.05C13.505 6.05 13.5114 6.05 13.5177 6.05C13.5241 6.05 13.5305 6.05 13.5368 6.05C13.5432 6.05 13.5496 6.05 13.5559 6.05C13.5623 6.05 13.5687 6.05 13.575 6.05C13.5814 6.05 13.5878 6.05 13.5941 6.05C13.6005 6.05 13.6069 6.05 13.6133 6.05C13.6196 6.05 13.626 6.05 13.6324 6.05C13.6387 6.05 13.6451 6.05 13.6515 6.05C13.6579 6.05 13.6642 6.05 13.6706 6.05C13.677 6.05 13.6834 6.05 13.6898 6.05C13.6961 6.05 13.7025 6.05 13.7089 6.05C13.7153 6.05 13.7217 6.05 13.728 6.05C13.7344 6.05 13.7408 6.05 13.7472 6.05C13.7536 6.05 13.7599 6.05 13.7663 6.05C13.7727 6.05 13.7791 6.05 13.7855 6.05C13.7919 6.05 13.7983 6.05 13.8047 6.05C13.811 6.05 13.8174 6.05 13.8238 6.05C13.8302 6.05 13.8366 6.05 13.843 6.05C13.8494 6.05 13.8558 6.05 13.8622 6.05C13.8686 6.05 13.875 6.05 13.8814 6.05C13.8878 6.05 13.8942 6.05 13.9005 6.05C13.9069 6.05 13.9133 6.05 13.9197 6.05C13.9261 6.05 13.9325 6.05 13.9389 6.05C13.9453 6.05 13.9518 6.05 13.9582 6.05C13.9646 6.05 13.971 6.05 13.9774 6.05C13.9838 6.05 13.9902 6.05 13.9966 6.05C14.003 6.05 14.0094 6.05 14.0158 6.05C14.0222 6.05 14.0286 6.05 14.035 6.05C14.0415 6.05 14.0479 6.05 14.0543 6.05C14.0607 6.05 14.0671 6.05 14.0735 6.05C14.0799 6.05 14.0864 6.05 14.0928 6.05C14.0992 6.05 14.1056 6.05 14.112 6.05C14.1184 6.05 14.1249 6.05 14.1313 6.05C14.1377 6.05 14.1441 6.05 14.1506 6.05C14.157 6.05 14.1634 6.05 14.1698 6.05C14.1763 6.05 14.1827 6.05 14.1891 6.05C14.1955 6.05 14.202 6.05 14.2084 6.05C14.2148 6.05 14.2213 6.05 14.2277 6.05C14.2341 6.05 14.2406 6.05 14.247 6.05C14.2534 6.05 14.2599 6.05 14.2663 6.05C14.2727 6.05 14.2792 6.05 14.2856 6.05C14.292 6.05 14.2985 6.05 14.3049 6.05C14.3114 6.05 14.3178 6.05 14.3243 6.05C14.3307 6.05 14.3371 6.05 14.3436 6.05C14.35 6.05 14.3565 6.05 14.3629 6.05C14.3694 6.05 14.3758 6.05 14.3823 6.05C14.3887 6.05 14.3952 6.05 14.4016 6.05C14.4081 6.05 14.4145 6.05 14.421 6.05C14.4275 6.05 14.4339 6.05 14.4404 6.05C14.4468 6.05 14.4533 6.05 14.4597 6.05C14.4662 6.05 14.4727 6.05 14.4791 6.05C14.4856 6.05 14.4921 6.05 14.4985 6.05C14.505 6.05 14.5114 6.05 14.5179 6.05C14.5244 6.05 14.5308 6.05 14.5373 6.05C14.5438 6.05 14.5503 6.05 14.5567 6.05C14.5632 6.05 14.5697 6.05 14.5762 6.05C14.5826 6.05 14.5891 6.05 14.5956 6.05C14.6021 6.05 14.6085 6.05 14.615 6.05C14.6215 6.05 14.628 6.05 14.6345 6.05C14.6409 6.05 14.6474 6.05 14.6539 6.05C14.6604 6.05 14.6669 6.05 14.6734 6.05C14.6799 6.05 14.6863 6.05 14.6928 6.05C14.6993 6.05 14.7058 6.05 14.7123 6.05C14.7188 6.05 14.7253 6.05 14.7318 6.05C14.7383 6.05 14.7448 6.05 14.7513 6.05C14.7578 6.05 14.7643 6.05 14.7708 6.05C14.7773 6.05 14.7838 6.05 14.7903 6.05C14.7968 6.05 14.8033 6.05 14.8098 6.05C14.8163 6.05 14.8228 6.05 14.8293 6.05C14.8358 6.05 14.8424 6.05 14.8489 6.05C14.8554 6.05 14.8619 6.05 14.8684 6.05C14.8749 6.05 14.8814 6.05 14.888 6.05C14.8945 6.05 14.901 6.05 14.9075 6.05C14.914 6.05 14.9206 6.05 14.9271 6.05C14.9336 6.05 14.9401 6.05 14.9467 6.05C14.9532 6.05 14.9597 6.05 14.9662 6.05C14.9728 6.05 14.9793 6.05 14.9858 6.05C14.9924 6.05 14.9989 6.05 15.0054 6.05C15.012 6.05 15.0185 6.05 15.025 6.05C15.0316 6.05 15.0381 6.05 15.0447 6.05C15.0512 6.05 15.0577 6.05 15.0643 6.05C15.0708 6.05 15.0774 6.05 15.0839 6.05C15.0905 6.05 15.097 6.05 15.1036 6.05C15.1101 6.05 15.1167 6.05 15.1232 6.05C15.1298 6.05 15.1363 6.05 15.1429 6.05C15.1494 6.05 15.156 6.05 15.1626 6.05C15.1691 6.05 15.1757 6.05 15.1822 6.05C15.1888 6.05 15.1954 6.05 15.2019 6.05C15.2085 6.05 15.2151 6.05 15.2216 6.05C15.2282 6.05 15.2348 6.05 15.2413 6.05C15.2479 6.05 15.2545 6.05 15.2611 6.05C15.2676 6.05 15.2742 6.05 15.2808 6.05C15.2874 6.05 15.2939 6.05 15.3005 6.05C15.3071 6.05 15.3137 6.05 15.3203 6.05C15.3269 6.05 15.3334 6.05 15.34 6.05C15.3466 6.05 15.3532 6.05 15.3598 6.05C15.3664 6.05 15.373 6.05 15.3796 6.05C15.3862 6.05 15.3928 6.05 15.3994 6.05C15.406 6.05 15.4126 6.05 15.4192 6.05C15.4258 6.05 15.4324 6.05 15.439 6.05C15.4456 6.05 15.4522 6.05 15.4588 6.05C15.4654 6.05 15.472 6.05 15.4786 6.05C15.4852 6.05 15.4918 6.05 15.4985 6.05C15.5051 6.05 15.5117 6.05 15.5183 6.05C15.5249 6.05 15.5315 6.05 15.5382 6.05C15.5448 6.05 15.5514 6.05 15.558 6.05C15.5647 6.05 15.5713 6.05 15.5779 6.05C15.5845 6.05 15.5912 6.05 15.5978 6.05C15.6044 6.05 15.6111 6.05 15.6177 6.05C15.6243 6.05 15.631 6.05 15.6376 6.05C15.6443 6.05 15.6509 6.05 15.6575 6.05C15.6642 6.05 15.6708 6.05 15.6775 6.05C15.6841 6.05 15.6908 6.05 15.6974 6.05C15.7041 6.05 15.7107 6.05 15.7174 6.05C15.724 6.05 15.7307 6.05 15.7373 6.05C15.744 6.05 15.7506 6.05 15.7573 6.05C15.764 6.05 15.7706 6.05 15.7773 6.05C15.784 6.05 15.7906 6.05 15.7973 6.05C15.804 6.05 15.8106 6.05 15.8173 6.05C15.824 6.05 15.8306 6.05 15.8373 6.05C15.844 6.05 15.8507 6.05 15.8574 6.05C15.864 6.05 15.8707 6.05 15.8774 6.05C15.8841 6.05 15.8908 6.05 15.8974 6.05C15.9041 6.05 15.9108 6.05 15.9175 6.05C15.9242 6.05 15.9309 6.05 15.9376 6.05C15.9443 6.05 15.951 6.05 15.9577 6.05C15.9644 6.05 15.9711 6.05 15.9778 6.05C15.9845 6.05 15.9912 6.05 15.9979 6.05C16.0046 6.05 16.0113 6.05 16.018 6.05C16.0247 6.05 16.0314 6.05 16.0381 6.05C16.0449 6.05 16.0516 6.05 16.0583 6.05C16.065 6.05 16.0717 6.05 16.0785 6.05C16.0852 6.05 16.0919 6.05 16.0986 6.05C16.1053 6.05 16.1121 6.05 16.1188 6.05C16.1255 6.05 16.1323 6.05 16.139 6.05C16.1457 6.05 16.1525 6.05 16.1592 6.05C16.1659 6.05 16.1727 6.05 16.1794 6.05C16.1862 6.05 16.1929 6.05 16.1996 6.05C16.2064 6.05 16.2131 6.05 16.2199 6.05C16.2266 6.05 16.2334 6.05 16.2401 6.05C16.2469 6.05 16.2537 6.05 16.2604 6.05C16.2672 6.05 16.2739 6.05 16.2807 6.05C16.2875 6.05 16.2942 6.05 16.301 6.05C16.3077 6.05 16.3145 6.05 16.3213 6.05C16.3281 6.05 16.3348 6.05 16.3416 6.05C16.3484 6.05 16.3552 6.05 16.3619 6.05C16.3687 6.05 16.3755 6.05 16.3823 6.05C16.3891 6.05 16.3958 6.05 16.4026 6.05C16.4094 6.05 16.4162 6.05 16.423 6.05C16.4298 6.05 16.4366 6.05 16.4434 6.05C16.4502 6.05 16.457 6.05 16.4638 6.05C16.4706 6.05 16.4774 6.05 16.4842 6.05C16.491 6.05 16.4978 6.05 16.5046 6.05C16.5114 6.05 16.5182 6.05 16.525 6.05C16.5318 6.05 16.5387 6.05 16.5455 6.05C16.5523 6.05 16.5591 6.05 16.5659 6.05C16.5728 6.05 16.5796 6.05 16.5864 6.05C16.5932 6.05 16.6001 6.05 16.6069 6.05C16.6137 6.05 16.6206 6.05 16.6274 6.05C16.6342 6.05 16.6411 6.05 16.6479 6.05C16.6547 6.05 16.6616 6.05 16.6684 6.05C16.6753 6.05 16.6821 6.05 16.689 6.05C16.6958 6.05 16.7027 6.05 16.7095 6.05C16.7164 6.05 16.7232 6.05 16.7301 6.05C16.7369 6.05 16.7438 6.05 16.7507 6.05C16.7575 6.05 16.7644 6.05 16.7713 6.05C16.7781 6.05 16.785 6.05 16.7919 6.05C16.7987 6.05 16.8056 6.05 16.8125 6.05C16.8194 6.05 16.8262 6.05 16.8331 6.05C16.84 6.05 16.8469 6.05 16.8538 6.05C16.8606 6.05 16.8675 6.05 16.8744 6.05C16.8813 6.05 16.8882 6.05 16.8951 6.05C16.902 6.05 16.9089 6.05 16.9158 6.05C16.9227 6.05 16.9296 6.05 16.9365 6.05C16.9434 6.05 16.9503 6.05 16.9572 6.05C16.9641 6.05 16.971 6.05 16.978 6.05C16.9849 6.05 16.9918 6.05 16.9987 6.05V4.55C16.9918 4.55 16.9849 4.55 16.978 4.55C16.971 4.55 16.9641 4.55 16.9572 4.55C16.9503 4.55 16.9434 4.55 16.9365 4.55C16.9296 4.55 16.9227 4.55 16.9158 4.55C16.9089 4.55 16.902 4.55 16.8951 4.55C16.8882 4.55 16.8813 4.55 16.8744 4.55C16.8675 4.55 16.8606 4.55 16.8538 4.55C16.8469 4.55 16.84 4.55 16.8331 4.55C16.8262 4.55 16.8194 4.55 16.8125 4.55C16.8056 4.55 16.7987 4.55 16.7919 4.55C16.785 4.55 16.7781 4.55 16.7713 4.55C16.7644 4.55 16.7575 4.55 16.7507 4.55C16.7438 4.55 16.7369 4.55 16.7301 4.55C16.7232 4.55 16.7164 4.55 16.7095 4.55C16.7027 4.55 16.6958 4.55 16.689 4.55C16.6821 4.55 16.6753 4.55 16.6684 4.55C16.6616 4.55 16.6547 4.55 16.6479 4.55C16.6411 4.55 16.6342 4.55 16.6274 4.55C16.6206 4.55 16.6137 4.55 16.6069 4.55C16.6001 4.55 16.5932 4.55 16.5864 4.55C16.5796 4.55 16.5728 4.55 16.5659 4.55C16.5591 4.55 16.5523 4.55 16.5455 4.55C16.5387 4.55 16.5318 4.55 16.525 4.55C16.5182 4.55 16.5114 4.55 16.5046 4.55C16.4978 4.55 16.491 4.55 16.4842 4.55C16.4774 4.55 16.4706 4.55 16.4638 4.55C16.457 4.55 16.4502 4.55 16.4434 4.55C16.4366 4.55 16.4298 4.55 16.423 4.55C16.4162 4.55 16.4094 4.55 16.4026 4.55C16.3958 4.55 16.3891 4.55 16.3823 4.55C16.3755 4.55 16.3687 4.55 16.3619 4.55C16.3552 4.55 16.3484 4.55 16.3416 4.55C16.3348 4.55 16.3281 4.55 16.3213 4.55C16.3145 4.55 16.3077 4.55 16.301 4.55C16.2942 4.55 16.2875 4.55 16.2807 4.55C16.2739 4.55 16.2672 4.55 16.2604 4.55C16.2537 4.55 16.2469 4.55 16.2401 4.55C16.2334 4.55 16.2266 4.55 16.2199 4.55C16.2131 4.55 16.2064 4.55 16.1996 4.55C16.1929 4.55 16.1862 4.55 16.1794 4.55C16.1727 4.55 16.1659 4.55 16.1592 4.55C16.1525 4.55 16.1457 4.55 16.139 4.55C16.1323 4.55 16.1255 4.55 16.1188 4.55C16.1121 4.55 16.1053 4.55 16.0986 4.55C16.0919 4.55 16.0852 4.55 16.0785 4.55C16.0717 4.55 16.065 4.55 16.0583 4.55C16.0516 4.55 16.0449 4.55 16.0381 4.55C16.0314 4.55 16.0247 4.55 16.018 4.55C16.0113 4.55 16.0046 4.55 15.9979 4.55C15.9912 4.55 15.9845 4.55 15.9778 4.55C15.9711 4.55 15.9644 4.55 15.9577 4.55C15.951 4.55 15.9443 4.55 15.9376 4.55C15.9309 4.55 15.9242 4.55 15.9175 4.55C15.9108 4.55 15.9041 4.55 15.8974 4.55C15.8908 4.55 15.8841 4.55 15.8774 4.55C15.8707 4.55 15.864 4.55 15.8574 4.55C15.8507 4.55 15.844 4.55 15.8373 4.55C15.8306 4.55 15.824 4.55 15.8173 4.55C15.8106 4.55 15.804 4.55 15.7973 4.55C15.7906 4.55 15.784 4.55 15.7773 4.55C15.7706 4.55 15.764 4.55 15.7573 4.55C15.7506 4.55 15.744 4.55 15.7373 4.55C15.7307 4.55 15.724 4.55 15.7174 4.55C15.7107 4.55 15.7041 4.55 15.6974 4.55C15.6908 4.55 15.6841 4.55 15.6775 4.55C15.6708 4.55 15.6642 4.55 15.6575 4.55C15.6509 4.55 15.6443 4.55 15.6376 4.55C15.631 4.55 15.6243 4.55 15.6177 4.55C15.6111 4.55 15.6044 4.55 15.5978 4.55C15.5912 4.55 15.5845 4.55 15.5779 4.55C15.5713 4.55 15.5647 4.55 15.558 4.55C15.5514 4.55 15.5448 4.55 15.5382 4.55C15.5315 4.55 15.5249 4.55 15.5183 4.55C15.5117 4.55 15.5051 4.55 15.4985 4.55C15.4918 4.55 15.4852 4.55 15.4786 4.55C15.472 4.55 15.4654 4.55 15.4588 4.55C15.4522 4.55 15.4456 4.55 15.439 4.55C15.4324 4.55 15.4258 4.55 15.4192 4.55C15.4126 4.55 15.406 4.55 15.3994 4.55C15.3928 4.55 15.3862 4.55 15.3796 4.55C15.373 4.55 15.3664 4.55 15.3598 4.55C15.3532 4.55 15.3466 4.55 15.34 4.55C15.3334 4.55 15.3269 4.55 15.3203 4.55C15.3137 4.55 15.3071 4.55 15.3005 4.55C15.2939 4.55 15.2874 4.55 15.2808 4.55C15.2742 4.55 15.2676 4.55 15.2611 4.55C15.2545 4.55 15.2479 4.55 15.2413 4.55C15.2348 4.55 15.2282 4.55 15.2216 4.55C15.2151 4.55 15.2085 4.55 15.2019 4.55C15.1954 4.55 15.1888 4.55 15.1822 4.55C15.1757 4.55 15.1691 4.55 15.1626 4.55C15.156 4.55 15.1494 4.55 15.1429 4.55C15.1363 4.55 15.1298 4.55 15.1232 4.55C15.1167 4.55 15.1101 4.55 15.1036 4.55C15.097 4.55 15.0905 4.55 15.0839 4.55C15.0774 4.55 15.0708 4.55 15.0643 4.55C15.0577 4.55 15.0512 4.55 15.0447 4.55C15.0381 4.55 15.0316 4.55 15.025 4.55C15.0185 4.55 15.012 4.55 15.0054 4.55C14.9989 4.55 14.9924 4.55 14.9858 4.55C14.9793 4.55 14.9728 4.55 14.9662 4.55C14.9597 4.55 14.9532 4.55 14.9467 4.55C14.9401 4.55 14.9336 4.55 14.9271 4.55C14.9206 4.55 14.914 4.55 14.9075 4.55C14.901 4.55 14.8945 4.55 14.888 4.55C14.8814 4.55 14.8749 4.55 14.8684 4.55C14.8619 4.55 14.8554 4.55 14.8489 4.55C14.8424 4.55 14.8358 4.55 14.8293 4.55C14.8228 4.55 14.8163 4.55 14.8098 4.55C14.8033 4.55 14.7968 4.55 14.7903 4.55C14.7838 4.55 14.7773 4.55 14.7708 4.55C14.7643 4.55 14.7578 4.55 14.7513 4.55C14.7448 4.55 14.7383 4.55 14.7318 4.55C14.7253 4.55 14.7188 4.55 14.7123 4.55C14.7058 4.55 14.6993 4.55 14.6928 4.55C14.6863 4.55 14.6799 4.55 14.6734 4.55C14.6669 4.55 14.6604 4.55 14.6539 4.55C14.6474 4.55 14.6409 4.55 14.6345 4.55C14.628 4.55 14.6215 4.55 14.615 4.55C14.6085 4.55 14.6021 4.55 14.5956 4.55C14.5891 4.55 14.5826 4.55 14.5762 4.55C14.5697 4.55 14.5632 4.55 14.5567 4.55C14.5503 4.55 14.5438 4.55 14.5373 4.55C14.5308 4.55 14.5244 4.55 14.5179 4.55C14.5114 4.55 14.505 4.55 14.4985 4.55C14.4921 4.55 14.4856 4.55 14.4791 4.55C14.4727 4.55 14.4662 4.55 14.4597 4.55C14.4533 4.55 14.4468 4.55 14.4404 4.55C14.4339 4.55 14.4275 4.55 14.421 4.55C14.4145 4.55 14.4081 4.55 14.4016 4.55C14.3952 4.55 14.3887 4.55 14.3823 4.55C14.3758 4.55 14.3694 4.55 14.3629 4.55C14.3565 4.55 14.35 4.55 14.3436 4.55C14.3371 4.55 14.3307 4.55 14.3243 4.55C14.3178 4.55 14.3114 4.55 14.3049 4.55C14.2985 4.55 14.292 4.55 14.2856 4.55C14.2792 4.55 14.2727 4.55 14.2663 4.55C14.2599 4.55 14.2534 4.55 14.247 4.55C14.2406 4.55 14.2341 4.55 14.2277 4.55C14.2213 4.55 14.2148 4.55 14.2084 4.55C14.202 4.55 14.1955 4.55 14.1891 4.55C14.1827 4.55 14.1763 4.55 14.1698 4.55C14.1634 4.55 14.157 4.55 14.1506 4.55C14.1441 4.55 14.1377 4.55 14.1313 4.55C14.1249 4.55 14.1184 4.55 14.112 4.55C14.1056 4.55 14.0992 4.55 14.0928 4.55C14.0864 4.55 14.0799 4.55 14.0735 4.55C14.0671 4.55 14.0607 4.55 14.0543 4.55C14.0479 4.55 14.0415 4.55 14.035 4.55C14.0286 4.55 14.0222 4.55 14.0158 4.55C14.0094 4.55 14.003 4.55 13.9966 4.55C13.9902 4.55 13.9838 4.55 13.9774 4.55C13.971 4.55 13.9646 4.55 13.9582 4.55C13.9518 4.55 13.9453 4.55 13.9389 4.55C13.9325 4.55 13.9261 4.55 13.9197 4.55C13.9133 4.55 13.9069 4.55 13.9005 4.55C13.8942 4.55 13.8878 4.55 13.8814 4.55C13.875 4.55 13.8686 4.55 13.8622 4.55C13.8558 4.55 13.8494 4.55 13.843 4.55C13.8366 4.55 13.8302 4.55 13.8238 4.55C13.8174 4.55 13.811 4.55 13.8047 4.55C13.7983 4.55 13.7919 4.55 13.7855 4.55C13.7791 4.55 13.7727 4.55 13.7663 4.55C13.7599 4.55 13.7536 4.55 13.7472 4.55C13.7408 4.55 13.7344 4.55 13.728 4.55C13.7217 4.55 13.7153 4.55 13.7089 4.55C13.7025 4.55 13.6961 4.55 13.6898 4.55C13.6834 4.55 13.677 4.55 13.6706 4.55C13.6642 4.55 13.6579 4.55 13.6515 4.55C13.6451 4.55 13.6387 4.55 13.6324 4.55C13.626 4.55 13.6196 4.55 13.6133 4.55C13.6069 4.55 13.6005 4.55 13.5941 4.55C13.5878 4.55 13.5814 4.55 13.575 4.55C13.5687 4.55 13.5623 4.55 13.5559 4.55C13.5496 4.55 13.5432 4.55 13.5368 4.55C13.5305 4.55 13.5241 4.55 13.5177 4.55C13.5114 4.55 13.505 4.55 13.4987 4.55C13.4923 4.55 13.4859 4.55 13.4796 4.55C13.4732 4.55 13.4668 4.55 13.4605 4.55C13.4541 4.55 13.4478 4.55 13.4414 4.55C13.4351 4.55 13.4287 4.55 13.4223 4.55C13.416 4.55 13.4096 4.55 13.4033 4.55C13.3969 4.55 13.3906 4.55 13.3842 4.55C13.3779 4.55 13.3715 4.55 13.3651 4.55C13.3588 4.55 13.3524 4.55 13.3461 4.55C13.3397 4.55 13.3334 4.55 13.327 4.55C13.3207 4.55 13.3143 4.55 13.308 4.55C13.3016 4.55 13.2953 4.55 13.2889 4.55C13.2826 4.55 13.2763 4.55 13.2699 4.55C13.2636 4.55 13.2572 4.55 13.2509 4.55C13.2445 4.55 13.2382 4.55 13.2318 4.55C13.2255 4.55 13.2192 4.55 13.2128 4.55C13.2065 4.55 13.2001 4.55 13.1938 4.55C13.1874 4.55 13.1811 4.55 13.1748 4.55C13.1684 4.55 13.1621 4.55 13.1557 4.55C13.1494 4.55 13.1431 4.55 13.1367 4.55C13.1304 4.55 13.1241 4.55 13.1177 4.55C13.1114 4.55 13.105 4.55 13.0987 4.55C13.0924 4.55 13.086 4.55 13.0797 4.55C13.0734 4.55 13.067 4.55 13.0607 4.55C13.0544 4.55 13.048 4.55 13.0417 4.55C13.0354 4.55 13.029 4.55 13.0227 4.55C13.0164 4.55 13.01 4.55 13.0037 4.55C12.9974 4.55 12.9911 4.55 12.9847 4.55C12.9784 4.55 12.9721 4.55 12.9657 4.55C12.9594 4.55 12.9531 4.55 12.9468 4.55C12.9404 4.55 12.9341 4.55 12.9278 4.55C12.9215 4.55 12.9151 4.55 12.9088 4.55C12.9025 4.55 12.8961 4.55 12.8898 4.55C12.8835 4.55 12.8772 4.55 12.8709 4.55C12.8645 4.55 12.8582 4.55 12.8519 4.55C12.8456 4.55 12.8392 4.55 12.8329 4.55C12.8266 4.55 12.8203 4.55 12.814 4.55C12.8076 4.55 12.8013 4.55 12.795 4.55C12.7887 4.55 12.7823 4.55 12.776 4.55C12.7697 4.55 12.7634 4.55 12.7571 4.55C12.7508 4.55 12.7444 4.55 12.7381 4.55C12.7318 4.55 12.7255 4.55 12.7192 4.55C12.7128 4.55 12.7065 4.55 12.7002 4.55C12.6939 4.55 12.6876 4.55 12.6813 4.55C12.6749 4.55 12.6686 4.55 12.6623 4.55C12.656 4.55 12.6497 4.55 12.6434 4.55C12.6371 4.55 12.6307 4.55 12.6244 4.55C12.6181 4.55 12.6118 4.55 12.6055 4.55C12.5992 4.55 12.5929 4.55 12.5865 4.55C12.5802 4.55 12.5739 4.55 12.5676 4.55C12.5613 4.55 12.555 4.55 12.5487 4.55C12.5424 4.55 12.536 4.55 12.5297 4.55C12.5234 4.55 12.5171 4.55 12.5108 4.55C12.5045 4.55 12.4982 4.55 12.4919 4.55C12.4856 4.55 12.4792 4.55 12.4729 4.55C12.4666 4.55 12.4603 4.55 12.454 4.55C12.4477 4.55 12.4414 4.55 12.4351 4.55C12.4288 4.55 12.4225 4.55 12.4162 4.55C12.4098 4.55 12.4035 4.55 12.3972 4.55C12.3909 4.55 12.3846 4.55 12.3783 4.55C12.372 4.55 12.3657 4.55 12.3594 4.55C12.3531 4.55 12.3468 4.55 12.3405 4.55C12.3342 4.55 12.3279 4.55 12.3215 4.55C12.3152 4.55 12.3089 4.55 12.3026 4.55C12.2963 4.55 12.29 4.55 12.2837 4.55C12.2774 4.55 12.2711 4.55 12.2648 4.55C12.2585 4.55 12.2522 4.55 12.2459 4.55C12.2396 4.55 12.2333 4.55 12.227 4.55C12.2207 4.55 12.2143 4.55 12.208 4.55C12.2017 4.55 12.1954 4.55 12.1891 4.55C12.1828 4.55 12.1765 4.55 12.1702 4.55C12.1639 4.55 12.1576 4.55 12.1513 4.55C12.145 4.55 12.1387 4.55 12.1324 4.55C12.1261 4.55 12.1198 4.55 12.1135 4.55C12.1072 4.55 12.1009 4.55 12.0946 4.55C12.0883 4.55 12.082 4.55 12.0756 4.55C12.0693 4.55 12.063 4.55 12.0567 4.55C12.0504 4.55 12.0441 4.55 12.0378 4.55C12.0315 4.55 12.0252 4.55 12.0189 4.55C12.0126 4.55 12.0063 4.55 12 4.55C11.9937 4.55 11.9874 4.55 11.9811 4.55C11.9748 4.55 11.9685 4.55 11.9622 4.55C11.9559 4.55 11.9496 4.55 11.9433 4.55C11.937 4.55 11.9307 4.55 11.9244 4.55C11.918 4.55 11.9117 4.55 11.9054 4.55C11.8991 4.55 11.8928 4.55 11.8865 4.55C11.8802 4.55 11.8739 4.55 11.8676 4.55C11.8613 4.55 11.855 4.55 11.8487 4.55C11.8424 4.55 11.8361 4.55 11.8298 4.55C11.8235 4.55 11.8172 4.55 11.8109 4.55C11.8046 4.55 11.7983 4.55 11.792 4.55C11.7857 4.55 11.7793 4.55 11.773 4.55C11.7667 4.55 11.7604 4.55 11.7541 4.55C11.7478 4.55 11.7415 4.55 11.7352 4.55C11.7289 4.55 11.7226 4.55 11.7163 4.55C11.71 4.55 11.7037 4.55 11.6974 4.55C11.6911 4.55 11.6848 4.55 11.6785 4.55C11.6721 4.55 11.6658 4.55 11.6595 4.55C11.6532 4.55 11.6469 4.55 11.6406 4.55C11.6343 4.55 11.628 4.55 11.6217 4.55C11.6154 4.55 11.6091 4.55 11.6028 4.55C11.5965 4.55 11.5901 4.55 11.5838 4.55C11.5775 4.55 11.5712 4.55 11.5649 4.55C11.5586 4.55 11.5523 4.55 11.546 4.55C11.5397 4.55 11.5334 4.55 11.5271 4.55C11.5207 4.55 11.5144 4.55 11.5081 4.55C11.5018 4.55 11.4955 4.55 11.4892 4.55C11.4829 4.55 11.4766 4.55 11.4703 4.55C11.464 4.55 11.4576 4.55 11.4513 4.55C11.445 4.55 11.4387 4.55 11.4324 4.55C11.4261 4.55 11.4198 4.55 11.4135 4.55C11.4071 4.55 11.4008 4.55 11.3945 4.55C11.3882 4.55 11.3819 4.55 11.3756 4.55C11.3693 4.55 11.3629 4.55 11.3566 4.55C11.3503 4.55 11.344 4.55 11.3377 4.55C11.3314 4.55 11.3251 4.55 11.3187 4.55C11.3124 4.55 11.3061 4.55 11.2998 4.55C11.2935 4.55 11.2872 4.55 11.2808 4.55C11.2745 4.55 11.2682 4.55 11.2619 4.55C11.2556 4.55 11.2492 4.55 11.2429 4.55C11.2366 4.55 11.2303 4.55 11.224 4.55C11.2177 4.55 11.2113 4.55 11.205 4.55C11.1987 4.55 11.1924 4.55 11.186 4.55C11.1797 4.55 11.1734 4.55 11.1671 4.55C11.1608 4.55 11.1544 4.55 11.1481 4.55C11.1418 4.55 11.1355 4.55 11.1291 4.55C11.1228 4.55 11.1165 4.55 11.1102 4.55C11.1038 4.55 11.0975 4.55 11.0912 4.55C11.0849 4.55 11.0785 4.55 11.0722 4.55C11.0659 4.55 11.0596 4.55 11.0532 4.55C11.0469 4.55 11.0406 4.55 11.0343 4.55C11.0279 4.55 11.0216 4.55 11.0153 4.55C11.0089 4.55 11.0026 4.55 10.9963 4.55C10.99 4.55 10.9836 4.55 10.9773 4.55C10.971 4.55 10.9646 4.55 10.9583 4.55C10.952 4.55 10.9456 4.55 10.9393 4.55C10.933 4.55 10.9266 4.55 10.9203 4.55C10.914 4.55 10.9076 4.55 10.9013 4.55C10.895 4.55 10.8886 4.55 10.8823 4.55C10.8759 4.55 10.8696 4.55 10.8633 4.55C10.8569 4.55 10.8506 4.55 10.8443 4.55C10.8379 4.55 10.8316 4.55 10.8252 4.55C10.8189 4.55 10.8126 4.55 10.8062 4.55C10.7999 4.55 10.7935 4.55 10.7872 4.55C10.7808 4.55 10.7745 4.55 10.7682 4.55C10.7618 4.55 10.7555 4.55 10.7491 4.55C10.7428 4.55 10.7364 4.55 10.7301 4.55C10.7237 4.55 10.7174 4.55 10.7111 4.55C10.7047 4.55 10.6984 4.55 10.692 4.55C10.6857 4.55 10.6793 4.55 10.673 4.55C10.6666 4.55 10.6603 4.55 10.6539 4.55C10.6476 4.55 10.6412 4.55 10.6349 4.55C10.6285 4.55 10.6221 4.55 10.6158 4.55C10.6094 4.55 10.6031 4.55 10.5967 4.55C10.5904 4.55 10.584 4.55 10.5777 4.55C10.5713 4.55 10.5649 4.55 10.5586 4.55C10.5522 4.55 10.5459 4.55 10.5395 4.55C10.5332 4.55 10.5268 4.55 10.5204 4.55C10.5141 4.55 10.5077 4.55 10.5013 4.55C10.495 4.55 10.4886 4.55 10.4823 4.55C10.4759 4.55 10.4695 4.55 10.4632 4.55C10.4568 4.55 10.4504 4.55 10.4441 4.55C10.4377 4.55 10.4313 4.55 10.425 4.55C10.4186 4.55 10.4122 4.55 10.4059 4.55C10.3995 4.55 10.3931 4.55 10.3867 4.55C10.3804 4.55 10.374 4.55 10.3676 4.55C10.3613 4.55 10.3549 4.55 10.3485 4.55C10.3421 4.55 10.3358 4.55 10.3294 4.55C10.323 4.55 10.3166 4.55 10.3102 4.55C10.3039 4.55 10.2975 4.55 10.2911 4.55C10.2847 4.55 10.2783 4.55 10.272 4.55C10.2656 4.55 10.2592 4.55 10.2528 4.55C10.2464 4.55 10.2401 4.55 10.2337 4.55C10.2273 4.55 10.2209 4.55 10.2145 4.55C10.2081 4.55 10.2017 4.55 10.1953 4.55C10.189 4.55 10.1826 4.55 10.1762 4.55C10.1698 4.55 10.1634 4.55 10.157 4.55C10.1506 4.55 10.1442 4.55 10.1378 4.55C10.1314 4.55 10.125 4.55 10.1186 4.55C10.1122 4.55 10.1058 4.55 10.0994 4.55C10.0931 4.55 10.0867 4.55 10.0803 4.55C10.0739 4.55 10.0675 4.55 10.0611 4.55C10.0547 4.55 10.0482 4.55 10.0418 4.55C10.0354 4.55 10.029 4.55 10.0226 4.55C10.0162 4.55 10.0098 4.55 10.0034 4.55C9.99701 4.55 9.9906 4.55 9.98419 4.55C9.97778 4.55 9.97137 4.55 9.96496 4.55C9.95855 4.55 9.95213 4.55 9.94572 4.55C9.93931 4.55 9.93289 4.55 9.92648 4.55C9.92006 4.55 9.91365 4.55 9.90723 4.55C9.90081 4.55 9.89439 4.55 9.88797 4.55C9.88155 4.55 9.87513 4.55 9.86871 4.55C9.86229 4.55 9.85587 4.55 9.84944 4.55C9.84302 4.55 9.8366 4.55 9.83017 4.55C9.82374 4.55 9.81732 4.55 9.81089 4.55C9.80446 4.55 9.79803 4.55 9.7916 4.55C9.78517 4.55 9.77874 4.55 9.77231 4.55C9.76588 4.55 9.75944 4.55 9.75301 4.55C9.74657 4.55 9.74014 4.55 9.7337 4.55C9.72727 4.55 9.72083 4.55 9.71439 4.55C9.70795 4.55 9.70151 4.55 9.69507 4.55C9.68863 4.55 9.68219 4.55 9.67574 4.55C9.6693 4.55 9.66285 4.55 9.65641 4.55C9.64996 4.55 9.64352 4.55 9.63707 4.55C9.63062 4.55 9.62417 4.55 9.61772 4.55C9.61127 4.55 9.60482 4.55 9.59836 4.55C9.59191 4.55 9.58546 4.55 9.579 4.55C9.57255 4.55 9.56609 4.55 9.55963 4.55C9.55318 4.55 9.54672 4.55 9.54026 4.55C9.5338 4.55 9.52734 4.55 9.52087 4.55C9.51441 4.55 9.50795 4.55 9.50148 4.55C9.49502 4.55 9.48855 4.55 9.48209 4.55C9.47562 4.55 9.46915 4.55 9.46268 4.55C9.45621 4.55 9.44974 4.55 9.44327 4.55C9.43679 4.55 9.43032 4.55 9.42385 4.55C9.41737 4.55 9.4109 4.55 9.40442 4.55C9.39794 4.55 9.39146 4.55 9.38498 4.55C9.3785 4.55 9.37202 4.55 9.36554 4.55C9.35906 4.55 9.35257 4.55 9.34609 4.55C9.3396 4.55 9.33312 4.55 9.32663 4.55C9.32014 4.55 9.31365 4.55 9.30716 4.55C9.30067 4.55 9.29418 4.55 9.28769 4.55C9.28119 4.55 9.2747 4.55 9.2682 4.55C9.26171 4.55 9.25521 4.55 9.24871 4.55C9.24221 4.55 9.23571 4.55 9.22921 4.55C9.22271 4.55 9.21621 4.55 9.20971 4.55C9.2032 4.55 9.1967 4.55 9.19019 4.55C9.18368 4.55 9.17718 4.55 9.17067 4.55C9.16416 4.55 9.15765 4.55 9.15114 4.55C9.14462 4.55 9.13811 4.55 9.1316 4.55C9.12508 4.55 9.11856 4.55 9.11205 4.55C9.10553 4.55 9.09901 4.55 9.09249 4.55C9.08597 4.55 9.07945 4.55 9.07292 4.55C9.0664 4.55 9.05988 4.55 9.05335 4.55C9.04682 4.55 9.04029 4.55 9.03377 4.55C9.02724 4.55 9.02071 4.55 9.01417 4.55C9.00764 4.55 9.00111 4.55 8.99457 4.55C8.98804 4.55 8.9815 4.55 8.97496 4.55C8.96843 4.55 8.96189 4.55 8.95535 4.55C8.9488 4.55 8.94226 4.55 8.93572 4.55C8.92917 4.55 8.92263 4.55 8.91608 4.55C8.90953 4.55 8.90299 4.55 8.89644 4.55C8.88989 4.55 8.88334 4.55 8.87678 4.55C8.87023 4.55 8.86367 4.55 8.85712 4.55C8.85056 4.55 8.844 4.55 8.83745 4.55C8.83089 4.55 8.82433 4.55 8.81776 4.55C8.8112 4.55 8.80464 4.55 8.79807 4.55C8.79151 4.55 8.78494 4.55 8.77837 4.55C8.7718 4.55 8.76523 4.55 8.75866 4.55C8.75209 4.55 8.74552 4.55 8.73894 4.55C8.73237 4.55 8.72579 4.55 8.71921 4.55C8.71263 4.55 8.70605 4.55 8.69947 4.55C8.69289 4.55 8.68631 4.55 8.67972 4.55C8.67314 4.55 8.66655 4.55 8.65997 4.55C8.65338 4.55 8.64679 4.55 8.6402 4.55C8.63361 4.55 8.62701 4.55 8.62042 4.55C8.61382 4.55 8.60723 4.55 8.60063 4.55C8.59403 4.55 8.58743 4.55 8.58083 4.55C8.57423 4.55 8.56763 4.55 8.56103 4.55C8.55442 4.55 8.54782 4.55 8.54121 4.55C8.5346 4.55 8.52799 4.55 8.52138 4.55C8.51477 4.55 8.50816 4.55 8.50154 4.55C8.49493 4.55 8.48831 4.55 8.48169 4.55C8.47507 4.55 8.46846 4.55 8.46183 4.55C8.45521 4.55 8.44859 4.55 8.44196 4.55C8.43534 4.55 8.42871 4.55 8.42209 4.55C8.41546 4.55 8.40883 4.55 8.40219 4.55C8.39556 4.55 8.38893 4.55 8.38229 4.55C8.37566 4.55 8.36902 4.55 8.36238 4.55C8.35574 4.55 8.3491 4.55 8.34246 4.55C8.33582 4.55 8.32917 4.55 8.32253 4.55C8.31588 4.55 8.30924 4.55 8.30259 4.55C8.29594 4.55 8.28929 4.55 8.28263 4.55C8.27598 4.55 8.26932 4.55 8.26267 4.55C8.25601 4.55 8.24935 4.55 8.24269 4.55C8.23603 4.55 8.22937 4.55 8.2227 4.55C8.21604 4.55 8.20937 4.55 8.20271 4.55C8.19604 4.55 8.18937 4.55 8.1827 4.55C8.17603 4.55 8.16935 4.55 8.16268 4.55C8.156 4.55 8.14933 4.55 8.14265 4.55C8.13597 4.55 8.12929 4.55 8.1226 4.55C8.11592 4.55 8.10924 4.55 8.10255 4.55C8.09586 4.55 8.08918 4.55 8.08249 4.55C8.0758 4.55 8.0691 4.55 8.06241 4.55C8.05572 4.55 8.04902 4.55 8.04232 4.55C8.03562 4.55 8.02892 4.55 8.02222 4.55C8.01552 4.55 8.00882 4.55 8.00211 4.55C7.9954 4.55 7.9887 4.55 7.98199 4.55C7.97528 4.55 7.96857 4.55 7.96185 4.55C7.95514 4.55 7.94842 4.55 7.94171 4.55C7.93499 4.55 7.92827 4.55 7.92155 4.55C7.91483 4.55 7.9081 4.55 7.90138 4.55C7.89465 4.55 7.88793 4.55 7.8812 4.55C7.87447 4.55 7.86774 4.55 7.861 4.55C7.85427 4.55 7.84754 4.55 7.8408 4.55C7.83406 4.55 7.82732 4.55 7.82058 4.55C7.81384 4.55 7.8071 4.55 7.80035 4.55C7.7936 4.55 7.78686 4.55 7.78011 4.55C7.77336 4.55 7.76661 4.55 7.75985 4.55C7.7531 4.55 7.74634 4.55 7.73959 4.55C7.73283 4.55 7.72607 4.55 7.71931 4.55C7.71254 4.55 7.70578 4.55 7.69902 4.55C7.69225 4.55 7.68548 4.55 7.67871 4.55C7.67194 4.55 7.66517 4.55 7.65839 4.55C7.65162 4.55 7.64484 4.55 7.63806 4.55C7.63129 4.55 7.62451 4.55 7.61772 4.55C7.61094 4.55 7.60416 4.55 7.59737 4.55C7.59058 4.55 7.58379 4.55 7.577 4.55C7.57021 4.55 7.56342 4.55 7.55662 4.55C7.54983 4.55 7.54303 4.55 7.53623 4.55C7.52943 4.55 7.52263 4.55 7.51582 4.55C7.50902 4.55 7.50221 4.55 7.4954 4.55C7.48859 4.55 7.48178 4.55 7.47497 4.55C7.46816 4.55 7.46134 4.55 7.45452 4.55C7.44771 4.55 7.44089 4.55 7.43407 4.55C7.42724 4.55 7.42042 4.55 7.41359 4.55C7.40677 4.55 7.39994 4.55 7.39311 4.55C7.38628 4.55 7.37945 4.55 7.37261 4.55C7.36578 4.55 7.35894 4.55 7.3521 4.55C7.34526 4.55 7.33842 4.55 7.33157 4.55C7.32473 4.55 7.31788 4.55 7.31104 4.55C7.30419 4.55 7.29734 4.55 7.29048 4.55C7.28363 4.55 7.27678 4.55 7.26992 4.55C7.26306 4.55 7.2562 4.55 7.24934 4.55C7.24248 4.55 7.23561 4.55 7.22875 4.55C7.22188 4.55 7.21501 4.55 7.20814 4.55C7.20127 4.55 7.19439 4.55 7.18752 4.55C7.18064 4.55 7.17376 4.55 7.16688 4.55C7.16 4.55 7.15312 4.55 7.14624 4.55C7.13935 4.55 7.13246 4.55 7.12557 4.55C7.11868 4.55 7.11179 4.55 7.1049 4.55C7.098 4.55 7.0911 4.55 7.08421 4.55C7.07731 4.55 7.0704 4.55 7.0635 4.55C7.0566 4.55 7.04969 4.55 7.04278 4.55C7.03587 4.55 7.02896 4.55 7.02205 4.55C7.01513 4.55 7.00822 4.55 7.0013 4.55V6.05ZM21 9.75H3V11.25H21V9.75ZM16.65 3.5V7.1H18.15V3.5H16.65ZM5.85 3.5V7.1H7.35V3.5H5.85ZM7 20.75C6.03599 20.75 5.38843 20.7484 4.90539 20.6835C4.44393 20.6214 4.24643 20.5142 4.11612 20.3839L3.05546 21.4445C3.51093 21.9 4.07773 22.0857 4.70552 22.1701C5.31174 22.2516 6.07839 22.25 7 22.25V20.75ZM2.25 17.5C2.25 18.4216 2.24841 19.1883 2.32991 19.7945C2.41432 20.4223 2.59999 20.9891 3.05546 21.4445L4.11612 20.3839C3.9858 20.2536 3.87858 20.0561 3.81654 19.5946C3.75159 19.1116 3.75 18.464 3.75 17.5H2.25ZM20.25 17.5C20.25 18.464 20.2484 19.1116 20.1835 19.5946C20.1214 20.0561 20.0142 20.2536 19.8839 20.3839L20.9445 21.4445C21.4 20.9891 21.5857 20.4223 21.6701 19.7945C21.7516 19.1883 21.75 18.4216 21.75 17.5H20.25ZM17 22.25C17.9216 22.25 18.6883 22.2516 19.2945 22.1701C19.9223 22.0857 20.4891 21.9 20.9445 21.4445L19.8839 20.3839C19.7536 20.5142 19.5561 20.6214 19.0946 20.6835C18.6116 20.7484 17.964 20.75 17 20.75V22.25ZM21.75 9.3C21.75 8.37839 21.7516 7.61174 21.6701 7.00552C21.5857 6.37773 21.4 5.81093 20.9445 5.35546L19.8839 6.41612C20.0142 6.54643 20.1214 6.74393 20.1835 7.20539C20.2484 7.68843 20.25 8.33599 20.25 9.3H21.75ZM16.9987 6.05C17.9631 6.05 18.611 6.05159 19.0943 6.11654C19.5561 6.1786 19.7536 6.28585 19.8839 6.41612L20.9445 5.35546C20.489 4.89994 19.9221 4.7143 19.2941 4.62991C18.6877 4.54841 17.9207 4.55 16.9987 4.55V6.05ZM3.75 9.3C3.75 8.33599 3.75159 7.68843 3.81654 7.20539C3.87858 6.74393 3.9858 6.54643 4.11612 6.41612L3.05546 5.35546C2.59999 5.81093 2.41432 6.37773 2.32991 7.00552C2.24841 7.61174 2.25 8.37839 2.25 9.3H3.75ZM7.0013 4.55C6.07925 4.55 5.3123 4.54841 4.70588 4.62991C4.07795 4.7143 3.51098 4.89994 3.05546 5.35546L4.11612 6.41612C4.24638 6.28585 4.44393 6.1786 4.90568 6.11654C5.38895 6.05159 6.03686 6.05 7.0013 6.05V4.55Z" fill="black"/>
<path d="M8.5 18C8.5 18.5523 8.05228 19 7.5 19C6.94772 19 6.5 18.5523 6.5 18C6.5 17.4477 6.94772 17 7.5 17C8.05228 17 8.5 17.4477 8.5 18Z" fill="black"/>
<path d="M13 18C13 18.5523 12.5523 19 12 19C11.4477 19 11 18.5523 11 18C11 17.4477 11.4477 17 12 17C12.5523 17 13 17.4477 13 18Z" fill="black"/>
<path d="M17.5 18C17.5 18.5523 17.0523 19 16.5 19C15.9477 19 15.5 18.5523 15.5 18C15.5 17.4477 15.9477 17 16.5 17C17.0523 17 17.5 17.4477 17.5 18Z" fill="black"/>
<path d="M17.5 18C17.5 18.5523 17.0523 19 16.5 19C15.9477 19 15.5 18.5523 15.5 18C15.5 17.4477 15.9477 17 16.5 17C17.0523 17 17.5 17.4477 17.5 18Z" fill="black"/>
<path d="M8.5 14C8.5 14.5523 8.05228 15 7.5 15C6.94772 15 6.5 14.5523 6.5 14C6.5 13.4477 6.94772 13 7.5 13C8.05228 13 8.5 13.4477 8.5 14Z" fill="black"/>
<path d="M13 14C13 14.5523 12.5523 15 12 15C11.4477 15 11 14.5523 11 14C11 13.4477 11.4477 13 12 13C12.5523 13 13 13.4477 13 14Z" fill="black"/>
<path d="M17.5 14C17.5 14.5523 17.0523 15 16.5 15C15.9477 15 15.5 14.5523 15.5 14C15.5 13.4477 15.9477 13 16.5 13C17.0523 13 17.5 13.4477 17.5 14Z" fill="black"/>
<path d="M17.5 14C17.5 14.5523 17.0523 15 16.5 15C15.9477 15 15.5 14.5523 15.5 14C15.5 13.4477 15.9477 13 16.5 13C17.0523 13 17.5 13.4477 17.5 14Z" fill="black"/>
</g>
<defs>
<clipPath id="clip0_81_4859">
<rect width="24" height="24" fill="white" transform="translate(0 0.5)"/>
</clipPath>
</defs>
</svg>
